PathFileType  4	(X/Y/Z) C:\Users\antoi\Documents\MyRepositories\mobilecap\ResultsAnalysis
DataRate	CameraRate	NumFrames	NumMarkers	Units	OrigDataRate	OrigDataStartFrame	OrigNumFrames
100.0	100.0	6	51	mm	100.0	698	1861
Frame#	Time	r_knee			r_shank_antsup			r_ankle			r_calc			r_5meta			r_toe			L_knee			L_shank_antsup			L_ankle			L_calc			L_5meta			L_toe			r_sh2			r_sh3			r_sh4			L_sh2			L_sh3			r_thigh1			r_thigh2			r_thigh3			r_thigh4			r_thigh5			L_thigh1			L_thigh2			L_thigh3			L_thigh4			r.ASIS			r.PSIS			L.ASIS			L.PSIS			C7			R_Shoulder			L_Shoulder			R_Sternum			L_Sternum			R_humerus			R_elbow_med			R_elbow_lat			R_forearm			R_wrist_radius			R_wrist_ulna			L_humerus			L_elbow_med			L_elbow_lat			L_forearm			L_wrist_radius			L_wrist_ulna			R_HJC			L_HJC			R_HJC_reg			L_HJC_reg			
		X1	Y1	Z1	X2	Y2	Z2	X3	Y3	Z3	X4	Y4	Z4	X5	Y5	Z5	X6	Y6	Z6	X7	Y7	Z7	X8	Y8	Z8	X9	Y9	Z9	X10	Y10	Z10	X11	Y11	Z11	X12	Y12	Z12	X13	Y13	Z13	X14	Y14	Z14	X15	Y15	Z15	X16	Y16	Z16	X17	Y17	Z17	X18	Y18	Z18	X19	Y19	Z19	X20	Y20	Z20	X21	Y21	Z21	X22	Y22	Z22	X23	Y23	Z23	X24	Y24	Z24	X25	Y25	Z25	X26	Y26	Z26	X27	Y27	Z27	X28	Y28	Z28	X29	Y29	Z29	X30	Y30	Z30	X31	Y31	Z31	X32	Y32	Z32	X33	Y33	Z33	X34	Y34	Z34	X35	Y35	Z35	X36	Y36	Z36	X37	Y37	Z37	X38	Y38	Z38	X39	Y39	Z39	X40	Y40	Z40	X41	Y41	Z41	X42	Y42	Z42	X43	Y43	Z43	X44	Y44	Z44	X45	Y45	Z45	X46	Y46	Z46	X47	Y47	Z47	X48	Y48	Z48	X49	Y49	Z49	X50	Y50	Z50	X51	Y51	Z51	

698	6.97000000	-163.15529	444.08135	-397.41200	-105.21390	389.81288	-400.09513	-222.76579	80.52824	-424.06737	-276.98284	52.78833	-471.25546	-116.12444	42.78405	-400.61877	-78.69759	65.27089	-452.67048	-152.60289	451.64643	-781.89898	-96.12539	367.43507	-769.60714	-210.63156	89.64336	-772.85989	-269.39559	50.38440	-729.36377	-109.41963	45.50500	-802.73163	-60.06185	63.88868	-748.89054	-134.78654	280.90383	-399.48647	-174.19421	407.69552	-372.13376	-210.04811	296.52258	-373.12552	-172.44047	395.16842	-807.98396	-196.66898	275.05020	-815.66507	-393.28351	538.81147	-374.14208	-281.40970	519.63165	-377.37414	-301.93031	411.87216	-403.30775	-418.03818	431.12257	-386.58875	-274.22775	449.86316	-376.65747	-410.53868	557.82113	-783.77473	-277.91921	529.80319	-778.84860	-443.06763	449.04729	-787.93517	-306.87841	419.83796	-770.95719	-405.31052	562.40156	-472.17178	-580.45376	666.30784	-542.50013	-409.14346	578.95769	-687.20543	-581.73776	662.52112	-622.86944	-139.95951	862.01691	-606.04738	-100.01166	810.68045	-480.87843	-115.40650	794.55949	-725.17576	-108.21496	724.95797	-576.73493	-113.20833	719.17501	-606.41306	-74.60136	736.22173	-405.15542	-111.52374	539.01314	-315.31840	-72.24826	582.09107	-272.25248	18.59854	586.60587	-299.95460	136.74370	562.57550	-355.04329	142.66076	532.81876	-330.98141	-100.82469	719.02091	-799.55904	-99.91131	494.62002	-826.73989	-73.37599	535.82872	-877.73542	31.93275	522.37389	-862.07069	145.29046	498.18672	-817.98838	138.98016	460.06743	-830.66547	-509.28793	509.09159	-480.44116	-507.13245	521.52792	-687.56421	-494.39824	540.11131	-498.27727	-496.66929	533.41198	-640.46614	
699	6.98000000	-165.89761	444.46556	-397.83085	-107.56701	390.61578	-400.49579	-222.93823	80.57520	-423.97947	-277.18450	52.75261	-471.10928	-116.23583	42.92381	-400.66928	-78.59615	65.62537	-452.88506	-155.31033	452.11925	-782.19663	-98.23105	368.06806	-769.30776	-210.83803	89.68804	-773.04453	-269.64995	50.27790	-729.16048	-109.47410	45.77012	-802.72539	-60.09055	64.59225	-748.84322	-136.43523	281.47554	-399.51736	-176.66182	408.04325	-372.47558	-211.66610	296.66423	-373.46179	-174.78810	395.37251	-807.76805	-198.18591	275.21780	-815.71452	-396.78592	537.71556	-374.86209	-284.75619	519.65006	-377.68343	-304.48768	411.46238	-403.59985	-420.70733	429.81709	-387.25066	-277.25925	450.08850	-376.45543	-414.06840	555.90663	-783.98975	-281.16182	529.05316	-779.00081	-445.67873	446.98666	-788.25277	-309.27835	418.84461	-770.95335	-408.90116	562.50339	-472.70706	-585.53304	663.56013	-543.40981	-412.91603	577.42726	-687.32206	-586.76375	659.61202	-623.70803	-148.19538	865.84836	-606.10345	-107.56352	814.83059	-481.14696	-122.43296	798.76395	-725.21282	-114.42202	729.34536	-577.14357	-119.29029	723.44283	-606.81516	-80.91401	740.75241	-405.52360	-114.68529	543.05067	-315.69597	-75.96059	586.62355	-272.47445	14.78356	592.35846	-300.67361	133.15640	569.81907	-356.04926	139.42438	540.11851	-332.05592	-107.03589	723.58393	-799.57161	-102.86064	499.23802	-827.31361	-76.88028	540.99349	-878.48985	28.55561	528.65458	-862.60390	142.23776	505.78897	-818.51441	136.36057	467.34205	-830.84106	-512.27890	507.79714	-480.33427	-510.29845	518.91206	-687.53274	-497.57105	538.38211	-498.72154	-499.74447	531.40913	-640.54696	
700	6.99000000	-168.68257	444.87523	-398.23248	-109.94455	391.44237	-400.97982	-223.08982	80.59231	-423.89340	-277.42608	52.87090	-470.89624	-116.31885	43.06718	-400.73491	-78.65692	66.02293	-452.94656	-158.09039	452.27057	-781.68861	-100.37675	368.79506	-769.14139	-211.10106	89.76201	-773.22883	-269.65205	50.04960	-729.57204	-109.54324	45.99868	-802.71198	-60.16179	65.32390	-748.86335	-137.99111	282.07147	-399.78688	-179.16691	408.53570	-372.81492	-213.38025	296.53864	-373.92662	-177.16001	395.61575	-807.44486	-199.70769	275.34663	-815.69658	-400.15175	536.35748	-375.84953	-288.04362	519.52246	-378.17356	-307.09159	410.97994	-404.28075	-423.33128	428.52233	-388.08924	-280.11332	449.82546	-376.99970	-417.65422	554.06283	-784.49709	-284.48452	528.32611	-779.09657	-448.30847	444.88715	-788.44100	-311.77225	418.00353	-770.95292	-412.66161	562.74433	-473.17653	-590.72873	660.86821	-544.36196	-416.63248	575.75323	-687.04824	-591.92476	656.70181	-624.67467	-156.64602	869.75163	-606.11552	-115.43857	819.27416	-481.19949	-129.79407	803.22514	-725.34062	-120.87276	733.93366	-577.63300	-125.60849	727.99697	-607.17321	-87.51986	745.64444	-405.88341	-118.37460	547.48602	-316.15884	-80.00035	591.21860	-272.91492	10.63193	598.40379	-301.48315	129.20132	577.38666	-357.07421	135.86134	547.70507	-333.22696	-113.38064	728.32067	-799.67910	-106.13370	504.26779	-828.17602	-80.58612	546.31452	-878.95951	25.00422	535.20622	-863.12212	138.91745	513.67669	-819.11291	133.47680	475.35724	-831.17695	-515.47030	506.66947	-480.03217	-513.44070	516.18762	-687.31060	-500.74041	536.81041	-499.01258	-502.84406	529.48302	-640.24779	
701	7.00000000	-171.45042	445.32596	-398.74950	-112.30385	392.22413	-401.60237	-223.26399	80.57519	-423.81789	-277.59316	52.96481	-470.77168	-116.40244	43.32599	-400.76402	-78.95088	66.51040	-452.84908	-160.88688	452.26793	-780.84427	-102.59458	369.60346	-768.97969	-211.42633	89.79289	-773.33876	-269.59436	49.80810	-730.08105	-109.63252	46.19194	-802.68541	-60.36171	65.88977	-748.93815	-139.45435	282.58570	-400.33562	-181.61290	409.14202	-373.40446	-215.15174	296.54021	-374.36290	-179.58434	395.83958	-807.17860	-201.31554	275.36091	-815.40122	-403.63980	535.06619	-376.99859	-291.37373	519.25688	-378.87943	-309.65283	410.53123	-405.06849	-425.93102	427.27307	-388.78823	-282.90131	449.47381	-377.78071	-421.30393	552.29646	-785.21804	-287.90906	527.59273	-779.20013	-450.95243	442.75444	-788.48480	-314.29230	417.23528	-770.84081	-416.51013	562.89115	-473.76919	-596.06286	658.05849	-545.18926	-420.53781	574.27832	-687.28468	-597.12676	653.81392	-625.62948	-165.32100	873.73009	-606.29294	-123.65816	823.94167	-481.19661	-137.48344	807.99829	-725.60422	-127.56843	738.58397	-578.06421	-132.05496	732.77407	-606.65422	-94.47094	750.75473	-406.22914	-122.56531	552.16347	-316.51149	-84.29496	595.88463	-273.73563	6.14195	604.63595	-302.32527	124.87098	585.24613	-358.11284	132.04835	555.67393	-334.27410	-119.85355	733.24653	-799.87256	-109.66346	509.45919	-828.90455	-84.50574	551.73076	-879.18871	21.22069	542.04263	-863.65947	135.34096	521.83578	-819.71248	130.40633	483.85720	-832.02282	-518.66204	505.40269	-480.01465	-516.75104	513.64814	-687.34994	-504.14278	534.95245	-499.63345	-506.00735	527.51518	-640.57024	
702	7.01000000	-174.12402	445.71588	-399.50427	-114.57992	393.03715	-402.26658	-223.49720	80.54239	-423.87517	-277.68078	52.88817	-470.77338	-116.50798	43.65974	-400.80694	-79.25962	67.10254	-452.72177	-163.65206	452.46000	-780.45492	-104.84286	370.36749	-768.62010	-211.77524	89.78721	-773.42576	-269.63985	49.61223	-730.30590	-109.74323	46.39437	-802.67962	-60.59163	66.15881	-748.76732	-140.95005	283.07795	-400.87644	-183.93290	409.50494	-374.24018	-216.89032	296.63973	-374.81017	-181.99795	396.11042	-807.13622	-202.88927	275.41423	-815.13155	-407.46740	534.41337	-377.81975	-294.71546	519.02992	-379.76786	-312.10425	410.19691	-405.68868	-428.45741	426.05701	-389.27731	-285.64160	449.31046	-378.41573	-424.88013	550.55241	-785.87482	-291.31841	526.90125	-779.48707	-453.59365	440.64950	-788.60291	-316.76875	416.32941	-770.61501	-420.47895	563.07115	-474.37267	-601.56582	655.12278	-545.95138	-424.68436	573.19730	-688.25378	-602.45243	650.85210	-626.50390	-174.45311	877.92751	-606.47736	-132.28841	828.78252	-481.28397	-145.46938	812.91062	-725.70097	-134.63655	743.34306	-578.23186	-138.75319	737.70767	-605.96523	-101.83665	755.92824	-406.52936	-126.94931	556.96436	-316.81167	-88.85821	600.77792	-274.88520	1.26733	611.02821	-303.12982	120.20652	593.33999	-359.11833	127.89579	563.89189	-335.31870	-126.63451	738.43332	-800.15555	-113.25434	514.58999	-828.87726	-88.65718	557.44940	-879.57572	17.14585	549.10794	-864.15478	131.51925	530.28930	-820.22694	127.11922	492.41883	-832.85288	-521.77302	504.02004	-480.32808	-520.19550	511.36204	-687.70010	-507.78191	532.96640	-500.42464	-509.33497	525.48419	-641.56431	
703	7.02000000	-176.70253	446.09430	-400.32982	-116.78709	393.88543	-402.95752	-223.76154	80.51069	-424.02625	-277.75581	52.72288	-470.77913	-116.61271	43.96912	-400.91701	-79.47329	67.71989	-452.57541	-166.38571	452.95550	-780.66063	-107.05705	371.09730	-768.30021	-212.09564	89.77259	-773.51592	-269.56304	49.43721	-730.72618	-109.88104	46.66828	-802.71518	-60.75331	66.34353	-748.35122	-142.54681	283.81411	-401.21809	-186.23456	409.64535	-375.12296	-218.55987	296.66570	-375.29323	-184.31386	396.49445	-807.24294	-204.36894	275.57255	-815.11691	-411.13347	534.01505	-378.25684	-297.93090	518.90736	-380.76512	-314.45867	409.85906	-406.36514	-430.83273	424.83959	-389.66710	-288.27360	449.20111	-379.03976	-428.32570	548.78569	-786.43593	-294.64417	526.24065	-779.88913	-456.19160	438.57178	-788.95200	-319.17671	415.41981	-770.58798	-424.65827	563.48854	-474.76732	-607.24263	652.12957	-546.79092	-428.95065	572.32953	-689.51969	-608.00496	647.68799	-627.31226	-184.12732	882.39557	-606.46865	-141.34179	833.75558	-481.46484	-153.76691	817.87307	-725.65989	-142.12565	748.31790	-578.05899	-146.08475	742.65415	-607.14509	-109.59129	761.19136	-406.75573	-131.31212	561.73299	-317.39707	-93.80372	605.96648	-276.03712	-4.01320	617.59542	-303.92301	115.19227	601.60291	-360.09929	123.25437	572.21820	-336.46547	-133.79766	743.84652	-800.50172	-117.05515	519.88568	-828.67406	-93.07677	563.51589	-880.09201	12.78585	556.35228	-864.44728	127.41100	538.98468	-820.65458	123.55177	501.03298	-833.31058	-524.89420	502.71645	-480.64978	-523.64606	509.11381	-688.05442	-511.53719	531.19691	-500.94945	-512.87787	523.38201	-642.61255	
